<svg width="24" height="24" viewBox="0 0 24 24" fill="none" xmlns="http://www.w3.org/2000/svg">
<path fill-rule="evenodd" clip-rule="evenodd" d="M1.5 12.0009C1.5 11.802 1.57902 11.6113 1.71967 11.4706C1.86032 11.33 2.05109 11.2509 2.25 11.2509H19.9395L15.219 6.53195C15.0782 6.39112 14.9991 6.20011 14.9991 6.00095C14.9991 5.80178 15.0782 5.61078 15.219 5.46995C15.3598 5.32912 15.5508 5.25 15.75 5.25C15.9492 5.25 16.1402 5.32912 16.281 5.46995L22.281 11.4699C22.3508 11.5396 22.4063 11.6224 22.4441 11.7135C22.4819 11.8046 22.5013 11.9023 22.5013 12.0009C22.5013 12.0996 22.4819 12.1973 22.4441 12.2884C22.4063 12.3795 22.3508 12.4623 22.281 12.5319L16.281 18.5319C16.1402 18.6728 15.9492 18.7519 15.75 18.7519C15.5508 18.7519 15.3598 18.6728 15.219 18.5319C15.0782 18.3911 14.9991 18.2001 14.9991 18.0009C14.9991 17.8018 15.0782 17.6108 15.219 17.4699L19.9395 12.7509H2.25C2.05109 12.7509 1.86032 12.6719 1.71967 12.5313C1.57902 12.3906 1.5 12.1999 1.5 12.0009Z" fill="black"/>
</svg>
