<svg width="24" height="24" viewBox="0 0 24 24" fill="none" xmlns="http://www.w3.org/2000/svg">
<path fill-rule="evenodd" clip-rule="evenodd" d="M22.4994 12.0009C22.4994 11.802 22.4204 11.6113 22.2797 11.4706C22.1391 11.33 21.9483 11.2509 21.7494 11.2509H4.05989L8.78039 6.53195C8.85012 6.46222 8.90543 6.37943 8.94317 6.28832C8.98091 6.19721 9.00033 6.09956 9.00033 6.00095C9.00033 5.90233 8.98091 5.80468 8.94317 5.71357C8.90543 5.62246 8.85012 5.53968 8.78039 5.46995C8.71066 5.40022 8.62787 5.3449 8.53676 5.30716C8.44565 5.26942 8.348 5.25 8.24939 5.25C8.15077 5.25 8.05312 5.26942 7.96201 5.30716C7.8709 5.3449 7.78812 5.40022 7.71839 5.46995L1.71839 11.4699C1.64854 11.5396 1.59313 11.6224 1.55532 11.7135C1.51751 11.8046 1.49805 11.9023 1.49805 12.0009C1.49805 12.0996 1.51751 12.1973 1.55532 12.2884C1.59313 12.3795 1.64854 12.4623 1.71839 12.5319L7.71839 18.5319C7.78812 18.6017 7.8709 18.657 7.96201 18.6947C8.05312 18.7325 8.15077 18.7519 8.24939 18.7519C8.348 18.7519 8.44565 18.7325 8.53676 18.6947C8.62787 18.657 8.71066 18.6017 8.78039 18.5319C8.85012 18.4622 8.90543 18.3794 8.94317 18.2883C8.98091 18.1972 9.00033 18.0996 9.00033 18.0009C9.00033 17.9023 8.98091 17.8047 8.94317 17.7136C8.90543 17.6225 8.85012 17.5397 8.78039 17.4699L4.05989 12.7509H21.7494C21.9483 12.7509 22.1391 12.6719 22.2797 12.5313C22.4204 12.3906 22.4994 12.1999 22.4994 12.0009Z" fill="black"/>
</svg>
